<?xml version="1.0" encoding="UTF-8" standalone="no"?>
<!DOCTYPE svg PUBLIC "-//W3C//DTD SVG 1.1//EN" "http://www.w3.org/Graphics/SVG/1.1/DTD/svg11.dtd">
<svg width="100%" height="100%" viewBox="0 0 1217 691" version="1.1" xmlns="http://www.w3.org/2000/svg" xmlns:xlink="http://www.w3.org/1999/xlink" xml:space="preserve" xmlns:serif="http://www.serif.com/" style="fill-rule:evenodd;clip-rule:evenodd;stroke-linejoin:round;stroke-miterlimit:2;">
    <g transform="matrix(1,0,0,1,-7600.05,-2218.74)">
        <g id="Logo" transform="matrix(0.122491,0,0,0.0491552,7600.05,2218.74)">
            <rect x="0" y="0" width="9933.07" height="14043.3" style="fill:none;"/>
            <g transform="matrix(131.189,0,0,326.914,-11826.9,-58345.1)">
                <g transform="matrix(0.5,0,0,0.5,-8.01948,116.006)">
                    <g transform="matrix(1,0,0,1.19799,0,-40.5505)">
                        <path d="M204.077,191.203C206.381,191.203 208.141,191.719 209.357,192.751C210.573,193.783 211.181,195.371 211.181,197.515L211.181,204.571L206.141,204.571L206.141,202.843C205.517,204.155 204.277,204.811 202.421,204.811C201.381,204.811 200.497,204.631 199.769,204.271C199.041,203.911 198.489,203.423 198.113,202.807C197.737,202.191 197.549,201.499 197.549,200.731C197.549,199.435 198.045,198.451 199.037,197.779C200.029,197.107 201.533,196.771 203.549,196.771L205.733,196.771C205.557,195.747 204.733,195.235 203.261,195.235C202.669,195.235 202.069,195.327 201.461,195.511C200.853,195.695 200.333,195.947 199.901,196.267L198.173,192.691C198.925,192.227 199.833,191.863 200.897,191.599C201.961,191.335 203.021,191.203 204.077,191.203ZM204.053,201.547C204.437,201.547 204.781,201.443 205.085,201.235C205.389,201.027 205.613,200.715 205.757,200.299L205.757,199.387L204.413,199.387C203.309,199.387 202.757,199.755 202.757,200.491C202.757,200.795 202.873,201.047 203.105,201.247C203.337,201.447 203.653,201.547 204.053,201.547Z" style="fill:rgb(243,35,185);fill-rule:nonzero;"/>
                    </g>
                    <g transform="matrix(1,0,0,1.24746,-1.00817,-50.6827)">
                        <path d="M226.439,202.915C225.623,203.379 221.277,204.811 219.869,204.811C218.029,204.811 216.613,204.367 215.621,203.479C214.629,202.591 214.133,201.259 214.133,199.483L214.133,196.123L209.938,196.171L205.044,192.075L214.147,192.075L214.133,188.491L219.557,188.491L219.557,192.075L222.259,192.075L222.245,196.123L219.557,196.123L219.557,199.435C219.557,199.835 219.661,200.147 219.869,200.371C220.077,200.595 220.349,200.707 220.685,200.707C221.149,200.707 223.773,199.915 224.125,199.675L226.439,202.915Z" style="fill:rgb(243,35,185);fill-rule:nonzero;"/>
                    </g>
                    <g transform="matrix(1,0,0,1.12802,-1.44017,-26.2206)">
                        <path d="M238.733,186.763L238.733,204.571L233.573,204.571L233.573,203.491C232.789,204.371 231.589,204.811 229.973,204.811C228.821,204.811 227.761,204.535 226.793,203.983C225.825,203.431 225.057,202.635 224.489,201.595C223.921,200.555 223.637,199.355 223.637,197.995C223.637,196.635 223.921,195.439 224.489,194.407C225.057,193.375 225.825,192.583 226.793,192.031C227.761,191.479 228.821,191.203 229.973,191.203C231.429,191.203 232.541,191.579 233.309,192.331L233.309,186.763L238.733,186.763ZM231.269,200.587C231.893,200.587 232.405,200.359 232.805,199.903C233.205,199.447 233.405,198.811 233.405,197.995C233.405,197.179 233.205,196.547 232.805,196.099C232.405,195.651 231.893,195.427 231.269,195.427C230.645,195.427 230.133,195.651 229.733,196.099C229.333,196.547 229.133,197.179 229.133,197.995C229.133,198.811 229.333,199.447 229.733,199.903C230.133,200.359 230.645,200.587 231.269,200.587Z" style="fill:rgb(243,35,185);fill-rule:nonzero;"/>
                    </g>
                </g>
                <g transform="matrix(0.5,0,0,0.5,14.3954,116.006)">
                    <g transform="matrix(1,0,0,1.22206,-2.84217e-14,-45.48)">
                        <path d="M207.869,204.115C207.053,204.579 205.941,204.811 204.533,204.811C202.693,204.811 201.277,204.367 200.285,203.479C199.293,202.591 198.797,201.259 198.797,199.483L198.797,196.123L196.997,196.123L196.997,192.163L198.797,192.163L198.797,188.491L204.221,188.491L204.221,191.81L210.465,191.81L209.546,196.139L204.221,196.123L204.221,199.435C204.221,199.835 204.325,200.147 204.533,200.371C204.741,200.595 205.013,200.707 205.349,200.707C205.813,200.707 206.221,200.587 206.573,200.347L207.869,204.115Z" style="fill:rgb(156,35,243);fill-rule:nonzero;"/>
                    </g>
                    <g transform="matrix(1,0,0,1.18849,0,-38.604)">
                        <path d="M223.589,191.443L223.589,204.571L218.429,204.571L218.429,203.323C217.949,203.819 217.389,204.191 216.749,204.439C216.109,204.687 215.429,204.811 214.709,204.811C213.045,204.811 211.709,204.303 210.701,203.287C209.693,202.271 209.189,200.739 209.189,198.691L209.189,191.443L214.613,191.443L214.613,197.755C214.613,198.651 214.757,199.291 215.045,199.675C215.333,200.059 215.757,200.251 216.317,200.251C216.845,200.251 217.285,200.039 217.637,199.615C217.989,199.191 218.165,198.523 218.165,197.611L218.165,191.443L223.589,191.443Z" style="fill:rgb(156,35,243);fill-rule:nonzero;"/>
                    </g>
                    <g transform="matrix(1,0,0,1.17053,-2.84217e-14,-34.886)">
                        <path d="M231.149,192.859C232.109,191.755 233.525,191.203 235.397,191.203L235.397,196.003C234.965,195.939 234.565,195.907 234.197,195.907C232.341,195.907 231.413,196.851 231.413,198.739L231.413,204.571L225.989,204.571L225.989,191.443L231.149,191.443L231.149,192.859Z" style="fill:rgb(156,35,243);fill-rule:nonzero;"/>
                    </g>
                    <path d="M236.933,191.443L242.357,191.443L242.357,204.571L236.933,204.571L236.933,191.443ZM239.645,190.387C238.669,190.387 237.881,190.127 237.281,189.607C236.681,189.087 236.381,188.427 236.381,187.627C236.381,186.827 236.681,186.167 237.281,185.647C237.881,185.127 238.669,184.867 239.645,184.867C240.637,184.867 241.429,185.115 242.021,185.611C242.613,186.107 242.909,186.747 242.909,187.531C242.909,188.363 242.613,189.047 242.021,189.583C241.429,190.119 240.637,190.387 239.645,190.387Z" style="fill:rgb(156,35,243);fill-rule:nonzero;"/>
                    <g transform="matrix(1,0,0,1.16753,0,-34.3109)">
                        <path d="M249.893,204.811C248.773,204.811 247.669,204.691 246.581,204.451C245.493,204.211 244.613,203.899 243.941,203.515L245.429,199.939C246.037,200.307 246.757,200.595 247.589,200.803C248.421,201.011 249.229,201.115 250.013,201.115C250.637,201.115 251.073,201.063 251.321,200.959C251.569,200.855 251.693,200.699 251.693,200.491C251.693,200.283 251.537,200.139 251.225,200.059C250.913,199.979 250.405,199.899 249.701,199.819C248.629,199.691 247.717,199.527 246.965,199.327C246.213,199.127 245.553,198.739 244.985,198.163C244.417,197.587 244.133,196.763 244.133,195.691C244.133,194.843 244.389,194.083 244.901,193.411C245.413,192.739 246.177,192.203 247.193,191.803C248.209,191.403 249.429,191.203 250.853,191.203C251.845,191.203 252.817,191.295 253.769,191.479C254.721,191.663 255.533,191.931 256.205,192.283L254.717,195.859C253.565,195.219 252.301,194.899 250.925,194.899C249.741,194.899 249.149,195.107 249.149,195.523C249.149,195.731 249.309,195.879 249.629,195.967C249.949,196.055 250.453,196.139 251.141,196.219C252.213,196.347 253.121,196.515 253.865,196.723C254.609,196.931 255.265,197.323 255.833,197.899C256.401,198.475 256.685,199.299 256.685,200.371C256.685,201.187 256.429,201.931 255.917,202.603C255.405,203.275 254.637,203.811 253.613,204.211C252.589,204.611 251.349,204.811 249.893,204.811Z" style="fill:rgb(156,35,243);fill-rule:nonzero;"/>
                    </g>
                    <g transform="matrix(1,0,0,1.17053,0,-34.886)">
                        <path d="M275.693,191.203C277.277,191.203 278.545,191.691 279.497,192.667C280.449,193.643 280.925,195.115 280.925,197.083L280.925,204.571L275.501,204.571L275.501,198.019C275.501,196.515 275.013,195.763 274.037,195.763C273.525,195.763 273.113,195.955 272.801,196.339C272.489,196.723 272.333,197.331 272.333,198.163L272.333,204.571L266.909,204.571L266.909,198.019C266.909,196.515 266.421,195.763 265.445,195.763C264.933,195.763 264.521,195.955 264.209,196.339C263.897,196.723 263.741,197.331 263.741,198.163L263.741,204.571L258.317,204.571L258.317,191.443L263.477,191.443L263.477,192.667C264.453,191.691 265.693,191.203 267.197,191.203C268.077,191.203 268.869,191.367 269.573,191.695C270.277,192.023 270.853,192.523 271.301,193.195C271.829,192.555 272.469,192.063 273.221,191.719C273.973,191.375 274.797,191.203 275.693,191.203Z" style="fill:rgb(156,35,243);fill-rule:nonzero;"/>
                    </g>
                    <g transform="matrix(1,0,0,1.16753,0,-34.3109)">
                        <path d="M290.453,204.811C288.997,204.811 287.689,204.519 286.529,203.935C285.369,203.351 284.461,202.543 283.805,201.511C283.149,200.479 282.821,199.307 282.821,197.995C282.821,196.683 283.149,195.511 283.805,194.479C284.461,193.447 285.369,192.643 286.529,192.067C287.689,191.491 288.997,191.203 290.453,191.203C291.925,191.203 293.241,191.491 294.401,192.067C295.561,192.643 296.465,193.447 297.113,194.479C297.761,195.511 298.085,196.683 298.085,197.995C298.085,199.307 297.761,200.479 297.113,201.511C296.465,202.543 295.561,203.351 294.401,203.935C293.241,204.519 291.925,204.811 290.453,204.811ZM290.453,200.587C291.077,200.587 291.589,200.359 291.989,199.903C292.389,199.447 292.589,198.811 292.589,197.995C292.589,197.179 292.389,196.547 291.989,196.099C291.589,195.651 291.077,195.427 290.453,195.427C289.829,195.427 289.317,195.651 288.917,196.099C288.517,196.547 288.317,197.179 288.317,197.995C288.317,198.811 288.517,199.447 288.917,199.903C289.317,200.359 289.829,200.587 290.453,200.587Z" style="fill:rgb(156,35,243);fill-rule:nonzero;"/>
                    </g>
                </g>
                <g transform="matrix(0.273466,0,0,0.329742,49.7869,74.3569)">
                    <path d="M232.612,432.469C232.612,431.161 231.331,430.099 229.754,430.099L227.178,430.099C225.601,430.099 224.32,431.161 224.32,432.469L224.32,434.5C224.32,435.808 225.601,436.87 227.178,436.87L229.754,436.87C231.331,436.87 232.612,435.808 232.612,434.5L232.612,432.469Z" style="fill:rgb(0,255,216);"/>
                </g>
            </g>
            <g transform="matrix(6.30536,0,0,15.7125,1609.52,12055.7)">
                <text x="-229.927px" y="114.938px" style="font-family:'Montserrat-Bold', 'Montserrat';font-weight:700;font-size:50px;fill:rgb(156,35,243);">T<tspan x="-152.127px -65.227px -3.577px 81.723px 167.773px 248.823px 336.723px 420.873px 484.773px 570.573px 632.223px 721.023px 802.073px 863.723px 947.773px 1011.67px 1098.22px 1172.77px 1253.82px " y="114.938px 114.938px 114.938px 114.938px 114.938px 114.938px 114.938px 114.938px 114.938px 114.938px 114.938px 114.938px 114.938px 114.938px 114.938px 114.938px 114.938px 114.938px 114.938px ">U AGENCIA DE VIAJES</tspan></text>
            </g>
            <g transform="matrix(3.62238,-0.871534,0.349744,9.02667,5019.76,1479.47)">
                <g>
                    <clipPath id="_clip1">
                        <rect x="0" y="0.066" width="490" height="310.999"/>
                    </clipPath>
                    <g clip-path="url(#_clip1)">
                        <path d="M299.824,49.528L204.766,44.472C203.66,44.413 202.551,44.663 201.574,45.187L149.211,73.433C147.621,74.292 146.496,75.82 146.148,77.593C145.805,79.366 146.273,81.206 147.422,82.597L174.359,115.183C174.621,114.987 174.891,114.796 175.191,114.636L299.824,49.528Z" style="fill:rgb(204,35,211);fill-rule:nonzero;"/>
                        <path d="M487.398,15.788C487.348,15.687 487.301,15.589 487.246,15.491C483.492,8.452 475,0.066 455.898,0.066C435.812,0.066 413.953,9.187 413.031,9.577C360.047,30.687 110.668,161.913 110.668,161.913L50.949,129.737C49.18,128.784 47.062,128.773 45.285,129.698L3.242,151.655C1.469,152.581 0.27,154.327 0.038,156.312C-0.188,158.3 0.574,160.273 2.09,161.581L104.836,250.405C106.711,252.023 109.383,252.335 111.578,251.191L211.914,198.839L227.094,305.808C227.371,307.765 228.586,309.46 230.348,310.351C231.207,310.784 232.141,310.999 233.074,310.999C234.059,310.999 235.043,310.761 235.938,310.281C246.602,304.546 253.258,300.913 259.695,297.402C266.25,293.823 273.031,290.124 284.004,284.23C285.18,283.597 286.109,282.597 286.656,281.386L358.062,122.542L431.465,84.218C465.781,66.792 498.496,39.663 487.398,15.788Z" style="fill:rgb(204,35,211);fill-rule:nonzero;"/>
                    </g>
                </g>
            </g>
            <g transform="matrix(23.3384,0,0,58.1575,-142574,-410785)">
                <g transform="matrix(1,0,0,1,541.536,-223.209)">
                    <path d="M5842.23,7326.24L5833.43,7353.41C5833.18,7353.09 5820.83,7362.77 5820.79,7363.03C5817.56,7383.36 5802.22,7395.67 5783.06,7395.81C5759.28,7394.87 5751.19,7385.63 5750.27,7380.25C5744.94,7382.2 5739.17,7383.59 5732.4,7383.69C5724.77,7383.12 5720.29,7382.56 5716.97,7381.99C5716.75,7384.67 5749.44,7424.3 5780.97,7453.95C5837.16,7393.61 5848.97,7394.07 5849.4,7355.5C5849.46,7349.34 5846.12,7333.19 5842.23,7326.24Z" style="fill:url(#_Linear2);"/>
                </g>
                <path d="M6375.29,7089.3L6373.9,7090.28L6355.62,7090.64L6343.24,7099.16C6338.79,7094.84 6330.8,7092.59 6322.01,7092.66C6296.07,7092.88 6283.01,7112.09 6283.15,7133.83C6283.19,7140.39 6284.23,7143.98 6286.66,7147.87C6301.57,7145.76 6313.72,7140.39 6327.13,7131.73C6316.24,7142.88 6300.38,7154.88 6272.7,7154.81C6242.38,7154.73 6224.44,7134.85 6224.59,7120.57C6224.69,7111.27 6233.88,7100.55 6246.75,7097.2C6248.9,7096.64 6253.81,7095.98 6255.92,7096C6257.24,7096.01 6260.88,7096.49 6263.46,7097.28C6276.64,7077.05 6295.89,7064.49 6324.59,7063.9C6343.97,7064.53 6361.85,7074.05 6375.29,7089.3ZM6262.77,7099.25C6261.43,7099.1 6257.41,7099.07 6255.75,7099.18C6242.55,7100.06 6231.23,7108.31 6231.24,7119.66C6231.24,7130.7 6244.5,7140.81 6254.46,7143.61C6253.21,7136.78 6253.33,7130.44 6253.73,7124.2C6254.21,7114.02 6258.55,7105.99 6262.77,7099.25Z" style="fill:url(#_Linear3);"/>
            </g>
        </g>
    </g>
    <defs>
        <linearGradient id="_Linear2" x1="0" y1="0" x2="1" y2="0" gradientUnits="userSpaceOnUse" gradientTransform="matrix(31.4795,-112.371,103.504,28.9954,5773.63,7417.07)"><stop offset="0" style="stop-color:rgb(156,35,243);stop-opacity:1"/><stop offset="1" style="stop-color:rgb(243,35,185);stop-opacity:1"/></linearGradient>
        <linearGradient id="_Linear3" x1="0" y1="0" x2="1" y2="0" gradientUnits="userSpaceOnUse" gradientTransform="matrix(31.4795,-112.371,103.504,28.9954,6315.16,7193.86)"><stop offset="0" style="stop-color:rgb(156,35,243);stop-opacity:1"/><stop offset="1" style="stop-color:rgb(243,35,185);stop-opacity:1"/></linearGradient>
    </defs>
</svg>
